<?xml version="1.0" standalone="no"?>
<!DOCTYPE svg PUBLIC "-//W3C//DTD SVG 20010904//EN"
 "http://www.w3.org/TR/2001/REC-SVG-20010904/DTD/svg10.dtd">
<svg version="1.0" xmlns="http://www.w3.org/2000/svg"
 width="2400.000000pt" height="2400.000000pt" viewBox="0 0 2400.000000 2400.000000"
 preserveAspectRatio="xMidYMid meet">
<metadata>
Created by potrace 1.11, written by Peter Selinger 2001-2013
</metadata>
<g transform="translate(0.000000,2400.000000) scale(0.100000,-0.100000)"
fill="#000000" stroke="none">
<path d="M11588 23995 c-2 -1 -75 -6 -163 -9 -87 -4 -177 -9 -200 -11 -22 -2
-83 -7 -135 -10 -52 -4 -113 -8 -135 -10 -187 -18 -284 -27 -305 -30 -14 -2
-47 -6 -75 -10 -27 -3 -63 -8 -80 -10 -16 -2 -68 -9 -115 -15 -47 -5 -96 -12
-109 -15 -12 -2 -42 -7 -65 -9 -22 -3 -52 -8 -66 -10 -14 -3 -83 -14 -155 -26
-218 -36 -639 -122 -815 -167 -14 -3 -32 -8 -40 -9 -8 -2 -67 -17 -130 -34
-63 -17 -122 -32 -130 -34 -57 -14 -299 -85 -420 -122 -631 -197 -1189 -421
-1780 -716 -241 -119 -597 -310 -635 -338 -5 -4 -32 -20 -60 -35 -164 -90
-622 -384 -870 -558 -112 -79 -317 -228 -325 -237 -3 -3 -52 -41 -110 -84 -58
-44 -107 -82 -110 -85 -3 -4 -27 -24 -55 -46 -77 -60 -346 -285 -385 -321 -19
-18 -44 -41 -56 -51 -299 -259 -739 -696 -1014 -1008 -29 -33 -66 -73 -81 -90
-15 -16 -60 -68 -99 -115 -40 -47 -82 -96 -93 -110 -125 -146 -437 -552 -562
-730 -86 -122 -180 -259 -232 -340 -31 -47 -80 -121 -108 -165 -282 -432 -625
-1074 -873 -1635 -44 -100 -115 -269 -139 -330 -14 -36 -33 -85 -43 -110 -129
-332 -245 -671 -331 -965 -28 -93 -52 -178 -54 -187 -2 -9 -13 -50 -24 -90
-22 -80 -90 -348 -96 -376 -1 -9 -19 -89 -38 -177 -20 -88 -41 -187 -47 -220
-18 -98 -20 -107 -35 -180 -7 -38 -16 -88 -20 -110 -3 -23 -7 -52 -10 -65 -3
-13 -7 -42 -10 -65 -3 -22 -10 -65 -15 -95 -9 -58 -16 -105 -25 -167 -3 -21
-7 -51 -10 -68 -2 -16 -7 -52 -10 -80 -3 -27 -8 -70 -11 -95 -4 -25 -8 -61
-10 -80 -2 -19 -5 -57 -8 -85 -5 -47 -11 -104 -20 -205 -4 -41 -8 -98 -21
-275 -15 -207 -20 -400 -20 -780 1 -438 6 -588 30 -910 3 -33 7 -94 10 -135 3
-41 8 -88 10 -105 2 -16 7 -61 10 -100 4 -38 8 -81 10 -95 9 -74 36 -290 40
-320 3 -19 10 -66 16 -105 27 -181 55 -347 85 -500 15 -71 28 -139 30 -150 6
-32 30 -143 54 -245 12 -52 23 -104 26 -115 53 -258 293 -1052 411 -1360 19
-49 53 -137 75 -195 22 -58 46 -118 53 -135 8 -16 29 -68 48 -115 171 -421
419 -926 655 -1335 41 -71 85 -147 96 -167 94 -165 486 -772 531 -822 6 -6 39
-51 75 -101 55 -77 152 -208 219 -295 47 -62 217 -276 231 -291 8 -9 31 -36
50 -60 160 -200 482 -551 750 -819 342 -342 720 -679 1061 -946 63 -49 119
-92 124 -97 6 -4 60 -45 120 -90 349 -262 762 -535 1155 -764 167 -98 174
-102 390 -217 80 -42 152 -81 160 -86 8 -6 22 -13 30 -17 8 -3 80 -38 160 -78
80 -39 213 -102 295 -140 83 -37 168 -76 190 -85 159 -73 564 -233 775 -307
198 -70 479 -163 540 -179 8 -2 69 -19 135 -39 195 -58 456 -125 740 -190 104
-24 353 -74 400 -81 17 -3 50 -9 75 -14 45 -10 188 -34 265 -45 22 -4 51 -8
65 -10 37 -6 317 -43 375 -50 28 -3 64 -8 80 -10 17 -2 82 -9 145 -15 63 -6
133 -13 155 -15 22 -2 85 -7 140 -10 55 -3 118 -8 140 -10 244 -26 1264 -27
1530 -1 22 3 85 7 140 11 55 4 116 8 135 10 19 2 71 6 115 10 44 3 87 8 95 10
8 2 47 7 85 10 39 3 138 15 220 26 197 26 205 27 310 44 50 8 108 17 130 20
22 4 47 8 55 10 8 3 33 7 55 10 22 3 63 10 90 16 28 5 61 11 75 14 14 3 36 7
50 10 14 3 36 7 50 10 14 3 36 7 50 10 14 3 34 7 45 9 11 2 74 16 140 31 66
15 129 29 140 31 11 2 99 24 195 49 96 25 184 48 195 50 63 14 460 134 640
194 358 118 831 302 1110 430 44 21 105 48 135 62 100 44 483 235 605 301 241
131 316 172 365 203 19 12 40 24 45 26 9 4 252 151 346 209 286 179 679 454
966 678 132 102 391 312 426 346 7 6 30 26 52 45 459 391 986 928 1406 1431
370 444 736 959 1048 1473 215 356 491 878 640 1212 30 66 64 143 77 170 206
454 469 1205 594 1695 12 47 26 96 31 110 4 14 11 36 13 50 3 14 15 63 26 110
12 47 24 96 26 110 3 14 11 50 19 80 25 97 85 399 120 605 43 255 41 238 80
540 3 22 8 51 10 65 2 14 7 59 11 100 4 41 8 86 9 100 14 122 22 214 30 330 4
52 8 115 11 140 26 319 26 1176 -1 1550 -2 30 -7 91 -10 135 -7 109 -21 254
-30 340 -21 184 -48 394 -61 478 -3 23 -7 53 -9 67 -12 86 -49 304 -70 415
-21 113 -78 387 -87 420 -5 22 -12 50 -14 63 -4 20 -34 146 -49 205 -3 9 -7
25 -9 35 -60 266 -269 938 -383 1232 -13 36 -43 112 -65 170 -22 58 -46 119
-53 135 -8 17 -29 68 -48 115 -19 47 -50 121 -69 165 -35 79 -49 112 -131 290
-55 120 -243 496 -307 615 -102 188 -122 224 -222 393 -164 280 -360 585 -547
850 -74 105 -258 356 -285 388 -7 9 -37 47 -67 85 -59 77 -206 259 -243 302
-13 15 -70 81 -126 147 -208 244 -345 390 -630 675 -363 362 -716 673 -1150
1012 -37 29 -249 186 -289 216 -14 9 -44 32 -68 50 -24 17 -46 32 -50 32 -4 0
-16 9 -27 19 -30 27 -352 242 -503 336 -18 11 -67 41 -109 68 -42 26 -80 47
-85 47 -5 0 -9 5 -9 10 0 6 -4 10 -9 10 -5 0 -71 37 -147 81 -138 81 -169 98
-354 199 -143 77 -488 250 -630 315 -69 31 -145 66 -170 77 -342 156 -1064
426 -1342 502 -29 9 -98 29 -153 46 -55 16 -109 32 -120 34 -11 3 -51 14 -90
25 -76 21 -414 107 -455 116 -14 2 -43 9 -65 14 -22 5 -87 19 -145 31 -58 12
-114 23 -125 26 -107 22 -311 59 -430 78 -142 23 -151 25 -315 46 -85 12 -166
23 -180 25 -14 2 -57 7 -96 10 -39 3 -80 7 -90 9 -20 4 -103 12 -219 22 -38 3
-88 7 -110 9 -22 2 -94 7 -160 10 -66 4 -140 9 -165 11 -53 5 -1007 14 -1012
9z m947 -1419 c39 -3 113 -8 165 -11 52 -3 113 -7 135 -10 22 -2 76 -7 120
-10 44 -4 94 -8 110 -10 17 -2 57 -7 90 -10 33 -2 132 -14 220 -26 199 -26
209 -27 243 -34 15 -3 56 -10 92 -15 36 -5 75 -12 86 -14 12 -2 37 -7 55 -10
60 -10 92 -16 194 -36 55 -11 110 -22 121 -24 46 -9 314 -70 354 -80 20 -6 99
-25 125 -31 277 -65 901 -269 1260 -413 368 -147 790 -342 1060 -490 84 -46
324 -180 345 -192 8 -5 80 -48 160 -96 839 -502 1710 -1220 2375 -1959 50 -55
93 -102 96 -105 16 -14 289 -342 371 -445 277 -350 586 -800 793 -1155 21 -36
46 -77 57 -92 10 -15 18 -29 18 -32 0 -3 13 -27 29 -54 150 -254 369 -692 511
-1023 183 -423 340 -862 459 -1284 28 -99 56 -196 61 -215 6 -19 17 -64 26
-100 8 -36 24 -101 35 -145 16 -65 38 -164 64 -285 6 -28 64 -335 69 -360 13
-82 19 -117 22 -135 2 -11 6 -40 9 -65 3 -25 8 -54 10 -66 3 -11 7 -43 10 -70
3 -27 8 -56 10 -64 2 -8 7 -42 10 -75 3 -33 8 -76 11 -95 9 -72 13 -117 19
-180 3 -36 8 -81 10 -100 3 -31 10 -115 20 -245 37 -501 23 -1288 -31 -1780
-3 -27 -7 -66 -8 -85 -4 -43 -16 -146 -21 -180 -2 -14 -9 -63 -15 -110 -5 -47
-12 -96 -14 -110 -3 -14 -10 -59 -16 -100 -16 -106 -17 -112 -24 -140 -3 -14
-8 -42 -11 -63 -4 -31 -31 -168 -71 -367 -35 -173 -136 -570 -195 -770 -45
-150 -178 -559 -187 -575 -4 -5 -7 -14 -8 -20 -1 -5 -18 -51 -38 -101 -20 -50
-36 -94 -36 -97 0 -8 -153 -383 -185 -452 -120 -265 -162 -354 -240 -510 -98
-192 -156 -302 -205 -385 -16 -28 -30 -52 -30 -54 0 -5 -172 -297 -224 -381
-20 -33 -42 -69 -49 -79 -34 -55 -301 -452 -329 -490 -18 -24 -40 -54 -48 -66
-35 -51 -258 -345 -297 -390 -11 -14 -50 -61 -84 -105 -35 -44 -66 -82 -69
-85 -3 -3 -45 -52 -95 -110 -49 -58 -96 -112 -105 -120 -8 -8 -33 -35 -54 -60
-249 -287 -676 -701 -1066 -1034 -347 -297 -901 -695 -1305 -939 -10 -7 -37
-23 -60 -37 -22 -13 -49 -30 -60 -36 -11 -6 -65 -37 -120 -69 -234 -134 -794
-425 -819 -425 -2 0 -44 -18 -93 -41 -48 -22 -110 -51 -138 -63 -45 -21 -242
-101 -430 -176 -204 -81 -813 -282 -955 -315 -8 -2 -69 -18 -135 -35 -172 -46
-467 -115 -565 -134 -218 -41 -353 -65 -388 -70 -24 -3 -46 -7 -50 -10 -4 -2
-32 -7 -63 -10 -31 -4 -67 -9 -80 -11 -13 -3 -48 -8 -78 -11 -30 -3 -64 -8
-75 -10 -12 -2 -46 -6 -76 -9 -30 -4 -62 -8 -70 -10 -8 -2 -44 -6 -80 -10 -36
-3 -85 -8 -110 -10 -104 -10 -237 -22 -355 -30 -359 -26 -1122 -26 -1415 0
-25 2 -83 6 -130 10 -47 3 -101 7 -120 10 -19 2 -60 6 -90 9 -174 17 -306 33
-353 41 -15 3 -44 7 -65 9 -36 4 -127 18 -247 37 -33 5 -71 11 -85 14 -156 25
-609 120 -765 161 -11 3 -30 7 -42 10 -12 2 -35 9 -50 15 -16 6 -29 10 -31 10
-15 -6 -658 185 -737 219 -11 4 -63 23 -115 40 -312 107 -813 320 -1180 504
-220 110 -262 132 -425 224 -44 25 -105 59 -135 76 -30 16 -93 53 -140 82 -47
29 -119 73 -160 98 -83 50 -329 209 -345 223 -5 5 -30 22 -55 39 -183 123
-405 288 -630 468 -96 77 -177 142 -180 145 -3 4 -21 19 -40 35 -268 219 -709
644 -983 947 -33 35 -73 80 -91 99 -58 63 -211 243 -310 365 -125 154 -109
134 -209 266 -48 63 -90 119 -94 124 -86 111 -393 557 -393 570 0 3 -5 11 -10
18 -35 42 -250 400 -364 607 -92 167 -251 481 -319 630 -14 30 -42 91 -62 135
-86 187 -244 581 -314 785 -18 52 -37 104 -41 115 -37 85 -231 745 -254 860
-1 6 -5 19 -9 30 -3 11 -8 31 -11 45 -2 14 -15 72 -29 130 -14 58 -28 123 -33
145 -4 22 -8 45 -9 50 -6 26 -26 122 -29 140 -21 108 -37 197 -41 230 -4 22
-8 47 -10 55 -3 8 -7 33 -10 55 -4 22 -13 81 -20 131 -8 50 -17 112 -19 139
-3 26 -10 82 -15 124 -10 72 -14 114 -26 231 -3 28 -7 71 -10 98 -27 261 -40
576 -39 967 0 363 6 548 29 840 4 50 9 106 10 125 2 19 5 58 8 85 4 28 9 77
12 110 3 33 8 71 10 85 2 14 6 48 9 75 6 45 10 74 21 155 2 14 7 45 10 70 3
25 11 72 16 105 6 33 12 74 15 90 72 443 189 934 331 1395 34 110 126 388 140
420 3 8 7 20 9 25 3 12 50 138 69 185 7 19 25 66 40 103 44 115 152 370 194
462 23 48 41 89 41 92 0 2 47 100 104 216 357 723 747 1337 1248 1964 76 95
148 185 162 200 13 16 54 64 92 108 38 44 73 85 79 91 300 333 587 621 875
880 30 27 57 51 60 54 3 3 52 46 110 95 58 50 107 92 110 95 49 50 533 420
706 540 187 130 408 274 610 397 389 237 766 431 1299 668 198 88 604 241 870
328 338 110 708 211 1031 281 178 39 174 38 329 66 61 11 121 22 135 25 52 11
86 16 120 20 19 2 44 6 55 8 11 3 43 8 70 11 28 4 57 9 65 11 8 2 40 6 71 10
31 3 65 7 75 9 26 5 141 17 284 30 41 4 86 9 100 11 23 3 155 14 245 20 22 1
110 6 195 10 85 4 156 8 158 10 5 4 826 -3 897 -9z"/>
<path d="M6227 14809 c-104 -20 -179 -49 -255 -99 -202 -130 -323 -354 -323
-594 1 -103 3 -118 32 -211 64 -209 244 -390 455 -459 87 -28 103 -30 424 -41
85 -3 171 -7 190 -9 19 -2 67 -7 105 -11 99 -9 332 -43 450 -66 704 -138 1404
-450 1985 -883 265 -198 529 -438 735 -671 39 -43 77 -86 85 -95 110 -120 436
-572 455 -630 4 -11 11 -20 16 -20 5 0 9 -4 9 -9 0 -5 19 -42 43 -83 165 -279
329 -652 434 -983 32 -102 99 -347 109 -398 2 -12 13 -67 24 -122 19 -95 36
-198 46 -275 2 -19 6 -46 9 -59 2 -13 7 -61 10 -105 4 -45 8 -92 11 -106 5
-31 14 -215 18 -380 2 -69 11 -156 20 -195 52 -219 227 -416 441 -496 418
-156 875 117 942 561 12 78 3 527 -12 620 -3 14 -7 57 -10 95 -3 39 -10 106
-15 150 -24 184 -20 152 -44 300 -17 98 -17 100 -47 243 -11 53 -22 108 -25
122 -8 39 -73 288 -96 365 -11 39 -20 71 -20 72 3 10 -163 472 -193 538 -7 17
-34 80 -60 140 -25 61 -90 198 -144 305 -444 887 -1100 1667 -1896 2255 -322
237 -603 411 -935 575 -69 34 -133 66 -143 71 -94 50 -469 202 -647 262 -352
119 -788 225 -1120 272 -34 4 -118 16 -155 21 -47 6 -113 13 -190 20 -38 3
-86 7 -105 9 -44 4 -338 17 -448 19 -46 0 -121 -6 -165 -15z"/>
<path d="M17587 14824 c-1 -1 -87 -4 -192 -8 -104 -4 -206 -8 -225 -10 -19 -2
-71 -7 -115 -11 -813 -68 -1692 -337 -2435 -743 -224 -123 -503 -301 -700
-445 -105 -78 -321 -248 -348 -275 -9 -9 -31 -27 -47 -40 -145 -114 -623 -595
-633 -637 -2 -8 14 -40 36 -72 174 -259 410 -709 573 -1096 45 -105 83 -196
86 -200 3 -4 23 18 45 50 221 318 552 675 863 932 136 112 124 103 228 179
280 207 549 364 927 540 161 75 586 225 729 257 9 2 61 15 116 29 55 13 117
27 139 30 21 4 42 8 46 11 4 3 25 7 46 11 87 13 101 15 149 24 28 5 73 12 100
15 28 3 64 8 80 10 156 21 323 32 537 35 240 4 388 57 535 194 243 225 295
590 124 874 -111 186 -306 315 -509 337 -62 7 -151 12 -155 9z"/>
</g>
</svg>
