<svg version="1.0" xmlns="http://www.w3.org/2000/svg" width="3200" height="3200" viewBox="0 0 2400 2400"><path d="M1158.8.5c-.2.1-7.5.6-16.3.9-8.7.4-17.7.9-20 1.1-2.2.2-8.3.7-13.5 1-5.2.4-11.3.8-13.5 1-18.7 1.8-28.4 2.7-30.5 3-1.4.2-4.7.6-7.5 1-2.7.3-6.3.8-8 1-1.6.2-6.8.9-11.5 1.5-4.7.5-9.6 1.2-10.9 1.5-1.2.2-4.2.7-6.5.9-2.2.3-5.2.8-6.6 1-1.4.3-8.3 1.4-15.5 2.6-21.8 3.6-63.9 12.2-81.5 16.7-1.4.3-3.2.8-4 .9-.8.2-6.7 1.7-13 3.4s-12.2 3.2-13 3.4c-5.7 1.4-29.9 8.5-42 12.2-63.1 19.7-118.9 42.1-178 71.6-24.1 11.9-59.7 31-63.5 33.8-.5.4-3.2 2-6 3.5-16.4 9-62.2 38.4-87 55.8-11.2 7.9-31.7 22.8-32.5 23.7-.3.3-5.2 4.1-11 8.4-5.8 4.4-10.7 8.2-11 8.5-.3.4-2.7 2.4-5.5 4.6-7.7 6-34.6 28.5-38.5 32.1-1.9 1.8-4.4 4.1-5.6 5.1-29.9 25.9-73.9 69.6-101.4 100.8-2.9 3.3-6.6 7.3-8.1 9-1.5 1.6-6 6.8-9.9 11.5-4 4.7-8.2 9.6-9.3 11-12.5 14.6-43.7 55.2-56.2 73-8.6 12.2-18 25.9-23.2 34-3.1 4.7-8 12.1-10.8 16.5-28.2 43.2-62.5 107.4-87.3 163.5-4.4 10-11.5 26.9-13.9 33-1.4 3.6-3.3 8.5-4.3 11-12.9 33.2-24.5 67.1-33.1 96.5-2.8 9.3-5.2 17.8-5.4 18.7-.2.9-1.3 5-2.4 9-2.2 8-9 34.8-9.6 37.6-.1.9-1.9 8.9-3.8 17.7-2 8.8-4.1 18.7-4.7 22-1.8 9.8-2 10.7-3.5 18-.7 3.8-1.6 8.8-2 11-.3 2.3-.7 5.2-1 6.5-.3 1.3-.7 4.2-1 6.5-.3 2.2-1 6.5-1.5 9.5-.9 5.8-1.6 10.5-2.5 16.7-.3 2.1-.7 5.1-1 6.8-.2 1.6-.7 5.2-1 8-.3 2.7-.8 7-1.1 9.5-.4 2.5-.8 6.1-1 8-.2 1.9-.5 5.7-.8 8.5-.5 4.7-1.1 10.4-2 20.5-.4 4.1-.8 9.8-2.1 27.5-1.5 20.7-2 40-2 78 .1 43.8.6 58.8 3 91 .3 3.3.7 9.4 1 13.5.3 4.1.8 8.8 1 10.5.2 1.6.7 6.1 1 10 .4 3.8.8 8.1 1 9.5.9 7.4 3.6 29 4 32 .3 1.9 1 6.6 1.6 10.5 2.7 18.1 5.5 34.7 8.5 50 1.5 7.1 2.8 13.9 3 15 .6 3.2 3 14.3 5.4 24.5 1.2 5.2 2.3 10.4 2.6 11.5 5.3 25.8 29.3 105.2 41.1 136 1.9 4.9 5.3 13.7 7.5 19.5 2.2 5.8 4.6 11.8 5.3 13.5.8 1.6 2.9 6.8 4.8 11.5 17.1 42.1 41.9 92.6 65.5 133.5 4.1 7.1 8.5 14.7 9.6 16.7 9.4 16.5 48.6 77.2 53.1 82.2.6.6 3.9 5.1 7.5 10.1 5.5 7.7 15.2 20.8 21.9 29.5 4.7 6.2 21.7 27.6 23.1 29.1.8.9 3.1 3.6 5 6 16 20 48.2 55.1 75 81.9 34.2 34.2 72 67.9 106.1 94.6 6.3 4.9 11.9 9.2 12.4 9.7.6.4 6 4.5 12 9 34.9 26.2 76.2 53.5 115.5 76.4 16.7 9.8 17.4 10.2 39 21.7 8 4.2 15.2 8.1 16 8.6.8.6 2.2 1.3 3 1.7.8.3 8 3.8 16 7.8 8 3.9 21.3 10.2 29.5 14 8.3 3.7 16.8 7.6 19 8.5 15.9 7.3 56.4 23.3 77.5 30.7 19.8 7 47.9 16.3 54 17.9.8.2 6.9 1.9 13.5 3.9 19.5 5.8 45.6 12.5 74 19 10.4 2.4 35.3 7.4 40 8.1 1.7.3 5 .9 7.5 1.4 4.5 1 18.8 3.4 26.5 4.5 2.2.4 5.1.8 6.5 1 3.7.6 31.7 4.3 37.5 5 2.8.3 6.4.8 8 1 1.7.2 8.2.9 14.5 1.5 6.3.6 13.3 1.3 15.5 1.5 2.2.2 8.5.7 14 1 5.5.3 11.8.8 14 1 24.4 2.6 126.4 2.7 153 .1 2.2-.3 8.5-.7 14-1.1 5.5-.4 11.6-.8 13.5-1 1.9-.2 7.1-.6 11.5-1 4.4-.3 8.7-.8 9.5-1 .8-.2 4.7-.7 8.5-1 3.9-.3 13.8-1.5 22-2.6 19.7-2.6 20.5-2.7 31-4.4 5-.8 10.8-1.7 13-2 2.2-.4 4.7-.8 5.5-1 .8-.3 3.3-.7 5.5-1 2.2-.3 6.3-1 9-1.6 2.8-.5 6.1-1.1 7.5-1.4 1.4-.3 3.6-.7 5-1 1.4-.3 3.6-.7 5-1 1.4-.3 3.6-.7 5-1 1.4-.3 3.4-.7 4.5-.9 1.1-.2 7.4-1.6 14-3.1s12.9-2.9 14-3.1c1.1-.2 9.9-2.4 19.5-4.9 9.6-2.5 18.4-4.8 19.5-5 6.3-1.4 46-13.4 64-19.4 35.8-11.8 83.1-30.2 111-43 4.4-2.1 10.5-4.8 13.5-6.2 10-4.4 48.3-23.5 60.5-30.1 24.1-13.1 31.6-17.2 36.5-20.3 1.9-1.2 4-2.4 4.5-2.6.9-.4 25.2-15.1 34.6-20.9 28.6-17.9 67.9-45.4 96.6-67.8 13.2-10.2 39.1-31.2 42.6-34.6.7-.6 3-2.6 5.2-4.5 45.9-39.1 98.6-92.8 140.6-143.1 37-44.4 73.6-95.9 104.8-147.3 21.5-35.6 49.1-87.8 64-121.2 3-6.6 6.4-14.3 7.7-17 20.6-45.4 46.9-120.5 59.4-169.5 1.2-4.7 2.6-9.6 3.1-11 .4-1.4 1.1-3.6 1.3-5 .3-1.4 1.5-6.3 2.6-11 1.2-4.7 2.4-9.6 2.6-11 .3-1.4 1.1-5 1.9-8 2.5-9.7 8.5-39.9 12-60.5 4.3-25.5 4.1-23.8 8-54 .3-2.2.8-5.1 1-6.5.2-1.4.7-5.9 1.1-10 .4-4.1.8-8.6.9-10 1.4-12.2 2.2-21.4 3-33 .4-5.2.8-11.5 1.1-14 2.6-31.9 2.6-117.6-.1-155-.2-3-.7-9.1-1-13.5-.7-10.9-2.1-25.4-3-34-2.1-18.4-4.8-39.4-6.1-47.8-.3-2.3-.7-5.3-.9-6.7-1.2-8.6-4.9-30.4-7-41.5-2.1-11.3-7.8-38.7-8.7-42-.5-2.2-1.2-5-1.4-6.3-.4-2-3.4-14.6-4.9-20.5-.3-.9-.7-2.5-.9-3.5-6-26.6-26.9-93.8-38.3-123.2-1.3-3.6-4.3-11.2-6.5-17-2.2-5.8-4.6-11.9-5.3-13.5-.8-1.7-2.9-6.8-4.8-11.5s-5-12.1-6.9-16.5c-3.5-7.9-4.9-11.2-13.1-29-5.5-12-24.3-49.6-30.7-61.5-10.2-18.8-12.2-22.4-22.2-39.3-16.4-28-36-58.5-54.7-85-7.4-10.5-25.8-35.6-28.5-38.8-.7-.9-3.7-4.7-6.7-8.5-5.9-7.7-20.6-25.9-24.3-30.2-1.3-1.5-7-8.1-12.6-14.7-20.8-24.4-34.5-39-63-67.5-36.3-36.2-71.6-67.3-115-101.2-3.7-2.9-24.9-18.6-28.9-21.6-1.4-.9-4.4-3.2-6.8-5-2.4-1.7-4.6-3.2-5-3.2-.4 0-1.6-.9-2.7-1.9-3-2.7-35.2-24.2-50.3-33.6-1.8-1.1-6.7-4.1-10.9-6.8-4.2-2.6-8-4.7-8.5-4.7s-.9-.5-.9-1c0-.6-.4-1-.9-1s-7.1-3.7-14.7-8.1c-13.8-8.1-16.9-9.8-35.4-19.9-14.3-7.7-48.8-25-63-31.5-6.9-3.1-14.5-6.6-17-7.7-34.2-15.6-106.4-42.6-134.2-50.2-2.9-.9-9.8-2.9-15.3-4.6-5.5-1.6-10.9-3.2-12-3.4-1.1-.3-5.1-1.4-9-2.5-7.6-2.1-41.4-10.7-45.5-11.6-1.4-.2-4.3-.9-6.5-1.4-2.2-.5-8.7-1.9-14.5-3.1-5.8-1.2-11.4-2.3-12.5-2.6-10.7-2.2-31.1-5.9-43-7.8-14.2-2.3-15.1-2.5-31.5-4.6-8.5-1.2-16.6-2.3-18-2.5-1.4-.2-5.7-.7-9.6-1-3.9-.3-8-.7-9-.9-2-.4-10.3-1.2-21.9-2.2-3.8-.3-8.8-.7-11-.9-2.2-.2-9.4-.7-16-1-6.6-.4-14-.9-16.5-1.1-5.3-.5-100.7-1.4-101.2-.9zm94.7 141.9c3.9.3 11.3.8 16.5 1.1 5.2.3 11.3.7 13.5 1 2.2.2 7.6.7 12 1 4.4.4 9.4.8 11 1 1.7.2 5.7.7 9 1 3.3.2 13.2 1.4 22 2.6 19.9 2.6 20.9 2.7 24.3 3.4 1.5.3 5.6 1 9.2 1.5 3.6.5 7.5 1.2 8.6 1.4 1.2.2 3.7.7 5.5 1 6 1 9.2 1.6 19.4 3.6 5.5 1.1 11 2.2 12.1 2.4 4.6.9 31.4 7 35.4 8 2 .6 9.9 2.5 12.5 3.1 27.7 6.5 90.1 26.9 126 41.3 36.8 14.7 79 34.2 106 49 8.4 4.6 32.4 18 34.5 19.2.8.5 8 4.8 16 9.6 83.9 50.2 171 122 237.5 195.9 5 5.5 9.3 10.2 9.6 10.5 1.6 1.4 28.9 34.2 37.1 44.5 27.7 35 58.6 80 79.3 115.5 2.1 3.6 4.6 7.7 5.7 9.2 1 1.5 1.8 2.9 1.8 3.2 0 .3 1.3 2.7 2.9 5.4 15 25.4 36.9 69.2 51.1 102.3 18.3 42.3 34 86.2 45.9 128.4 2.8 9.9 5.6 19.6 6.1 21.5.6 1.9 1.7 6.4 2.6 10 .8 3.6 2.4 10.1 3.5 14.5 1.6 6.5 3.8 16.4 6.4 28.5.6 2.8 6.4 33.5 6.9 36 1.3 8.2 1.9 11.7 2.2 13.5.2 1.1.6 4 .9 6.5.3 2.5.8 5.4 1 6.6.3 1.1.7 4.3 1 7 .3 2.7.8 5.6 1 6.4.2.8.7 4.2 1 7.5.3 3.3.8 7.6 1.1 9.5.9 7.2 1.3 11.7 1.9 18 .3 3.6.8 8.1 1 10 .3 3.1 1 11.5 2 24.5 3.7 50.1 2.3 128.8-3.1 178-.3 2.7-.7 6.6-.8 8.5-.4 4.3-1.6 14.6-2.1 18-.2 1.4-.9 6.3-1.5 11-.5 4.7-1.2 9.6-1.4 11-.3 1.4-1 5.9-1.6 10-1.6 10.6-1.7 11.2-2.4 14-.3 1.4-.8 4.2-1.1 6.3-.4 3.1-3.1 16.8-7.1 36.7-3.5 17.3-13.6 57-19.5 77-4.5 15-17.8 55.9-18.7 57.5-.4.5-.7 1.4-.8 2-.1.5-1.8 5.1-3.8 10.1-2 5-3.6 9.4-3.6 9.7 0 .8-15.3 38.3-18.5 45.2-12 26.5-16.2 35.4-24 51-9.8 19.2-15.6 30.2-20.5 38.5-1.6 2.8-3 5.2-3 5.4 0 .5-17.2 29.7-22.4 38.1-2 3.3-4.2 6.9-4.9 7.9-3.4 5.5-30.1 45.2-32.9 49-1.8 2.4-4 5.4-4.8 6.6-3.5 5.1-25.8 34.5-29.7 39-1.1 1.4-5 6.1-8.4 10.5-3.5 4.4-6.6 8.2-6.9 8.5-.3.3-4.5 5.2-9.5 11-4.9 5.8-9.6 11.2-10.5 12-.8.8-3.3 3.5-5.4 6-24.9 28.7-67.6 70.1-106.6 103.4-34.7 29.7-90.1 69.5-130.5 93.9-1 .7-3.7 2.3-6 3.7-2.2 1.3-4.9 3-6 3.6-1.1.6-6.5 3.7-12 6.9-23.4 13.4-79.4 42.5-81.9 42.5-.2 0-4.4 1.8-9.3 4.1-4.8 2.2-11 5.1-13.8 6.3-4.5 2.1-24.2 10.1-43 17.6-20.4 8.1-81.3 28.2-95.5 31.5-.8.2-6.9 1.8-13.5 3.5-17.2 4.6-46.7 11.5-56.5 13.4-21.8 4.1-35.3 6.5-38.8 7-2.4.3-4.6.7-5 1-.4.2-3.2.7-6.3 1-3.1.4-6.7.9-8 1.1-1.3.3-4.8.8-7.8 1.1-3 .3-6.4.8-7.5 1-1.2.2-4.6.6-7.6.9-3 .4-6.2.8-7 1-.8.2-4.4.6-8 1-3.6.3-8.5.8-11 1-10.4 1-23.7 2.2-35.5 3-35.9 2.6-112.2 2.6-141.5 0-2.5-.2-8.3-.6-13-1-4.7-.3-10.1-.7-12-1-1.9-.2-6-.6-9-.9-17.4-1.7-30.6-3.3-35.3-4.1-1.5-.3-4.4-.7-6.5-.9-3.6-.4-12.7-1.8-24.7-3.7-3.3-.5-7.1-1.1-8.5-1.4-15.6-2.5-60.9-12-76.5-16.1-1.1-.3-3-.7-4.2-1-1.2-.2-3.5-.9-5-1.5-1.6-.6-2.9-1-3.1-1-1.5.6-65.8-18.5-73.7-21.9-1.1-.4-6.3-2.3-11.5-4-31.2-10.7-81.3-32-118-50.4-22-11-26.2-13.2-42.5-22.4-4.4-2.5-10.5-5.9-13.5-7.6-3-1.6-9.3-5.3-14-8.2-4.7-2.9-11.9-7.3-16-9.8-8.3-5-32.9-20.9-34.5-22.3-.5-.5-3-2.2-5.5-3.9-18.3-12.3-40.5-28.8-63-46.8-9.6-7.7-17.7-14.2-18-14.5-.3-.4-2.1-1.9-4-3.5-26.8-21.9-70.9-64.4-98.3-94.7-3.3-3.5-7.3-8-9.1-9.9-5.8-6.3-21.1-24.3-31-36.5-12.5-15.4-10.9-13.4-20.9-26.6-4.8-6.3-9-11.9-9.4-12.4-8.6-11.1-39.3-55.7-39.3-57 0-.3-.5-1.1-1-1.8-3.5-4.2-25-40-36.4-60.7-9.2-16.7-25.1-48.1-31.9-63-1.4-3-4.2-9.1-6.2-13.5-8.6-18.7-24.4-58.1-31.4-78.5-1.8-5.2-3.7-10.4-4.1-11.5-3.7-8.5-23.1-74.5-25.4-86-.1-.6-.5-1.9-.9-3-.3-1.1-.8-3.1-1.1-4.5-.2-1.4-1.5-7.2-2.9-13s-2.8-12.3-3.3-14.5c-.4-2.2-.8-4.5-.9-5-.6-2.6-2.6-12.2-2.9-14-2.1-10.8-3.7-19.7-4.1-23-.4-2.2-.8-4.7-1-5.5-.3-.8-.7-3.3-1-5.5-.4-2.2-1.3-8.1-2-13.1-.8-5-1.7-11.2-1.9-13.9-.3-2.6-1-8.2-1.5-12.4-1-7.2-1.4-11.4-2.6-23.1-.3-2.8-.7-7.1-1-9.8-2.7-26.1-4-57.6-3.9-96.7 0-36.3.6-54.8 2.9-84 .4-5 .9-10.6 1-12.5.2-1.9.5-5.8.8-8.5.4-2.8.9-7.7 1.2-11 .3-3.3.8-7.1 1-8.5.2-1.4.6-4.8.9-7.5.6-4.5 1-7.4 2.1-15.5.2-1.4.7-4.5 1-7 .3-2.5 1.1-7.2 1.6-10.5.6-3.3 1.2-7.4 1.5-9 7.2-44.3 18.9-93.4 33.1-139.5 3.4-11 12.6-38.8 14-42 .3-.8.7-2 .9-2.5.3-1.2 5-13.8 6.9-18.5.7-1.9 2.5-6.6 4-10.3 4.4-11.5 15.2-37 19.4-46.2 2.3-4.8 4.1-8.9 4.1-9.2 0-.2 4.7-10 10.4-21.6 35.7-72.3 74.7-133.7 124.8-196.4 7.6-9.5 14.8-18.5 16.2-20 1.3-1.6 5.4-6.4 9.2-10.8 3.8-4.4 7.3-8.5 7.9-9.1 30-33.3 58.7-62.1 87.5-88 3-2.7 5.7-5.1 6-5.4.3-.3 5.2-4.6 11-9.5 5.8-5 10.7-9.2 11-9.5 4.9-5 53.3-42 70.6-54 18.7-13 40.8-27.4 61-39.7 38.9-23.7 76.6-43.1 129.9-66.8 19.8-8.8 60.4-24.1 87-32.8 33.8-11 70.8-21.1 103.1-28.1 17.8-3.9 17.4-3.8 32.9-6.6 6.1-1.1 12.1-2.2 13.5-2.5 5.2-1.1 8.6-1.6 12-2 1.9-.2 4.4-.6 5.5-.8 1.1-.3 4.3-.8 7-1.1 2.8-.4 5.7-.9 6.5-1.1.8-.2 4-.6 7.1-1 3.1-.3 6.5-.7 7.5-.9 2.6-.5 14.1-1.7 28.4-3 4.1-.4 8.6-.9 10-1.1 2.3-.3 15.5-1.4 24.5-2 2.2-.1 11-.6 19.5-1s15.6-.8 15.8-1c.5-.4 82.6.3 89.7.9z"/><path d="M622.7 919.1c-10.4 2-17.9 4.9-25.5 9.9-20.2 13-32.3 35.4-32.3 59.4.1 10.3.3 11.8 3.2 21.1 6.4 20.9 24.4 39 45.5 45.9 8.7 2.8 10.3 3 42.4 4.1 8.5.3 17.1.7 19 .9 1.9.2 6.7.7 10.5 1.1 9.9.9 33.2 4.3 45 6.6 70.4 13.8 140.4 45 198.5 88.3 26.5 19.8 52.9 43.8 73.5 67.1 3.9 4.3 7.7 8.6 8.5 9.5 11 12 43.6 57.2 45.5 63 .4 1.1 1.1 2 1.6 2s.9.4.9.9 1.9 4.2 4.3 8.3c16.5 27.9 32.9 65.2 43.4 98.3 3.2 10.2 9.9 34.7 10.9 39.8.2 1.2 1.3 6.7 2.4 12.2 1.9 9.5 3.6 19.8 4.6 27.5.2 1.9.6 4.6.9 5.9.2 1.3.7 6.1 1 10.5.4 4.5.8 9.2 1.1 10.6.5 3.1 1.4 21.5 1.8 38 .2 6.9 1.1 15.6 2 19.5 5.2 21.9 22.7 41.6 44.1 49.6 41.8 15.6 87.5-11.7 94.2-56.1 1.2-7.8.3-52.7-1.2-62-.3-1.4-.7-5.7-1-9.5-.3-3.9-1-10.6-1.5-15-2.4-18.4-2-15.2-4.4-30-1.7-9.8-1.7-10-4.7-24.3-1.1-5.3-2.2-10.8-2.5-12.2-.8-3.9-7.3-28.8-9.6-36.5-1.1-3.9-2-7.1-2-7.2.3-1-16.3-47.2-19.3-53.8-.7-1.7-3.4-8-6-14-2.5-6.1-9-19.8-14.4-30.5-44.4-88.7-110-166.7-189.6-225.5-32.2-23.7-60.3-41.1-93.5-57.5-6.9-3.4-13.3-6.6-14.3-7.1-9.4-5-46.9-20.2-64.7-26.2-35.2-11.9-78.8-22.5-112-27.2-3.4-.4-11.8-1.6-15.5-2.1-4.7-.6-11.3-1.3-19-2-3.8-.3-8.6-.7-10.5-.9-4.4-.4-33.8-1.7-44.8-1.9-4.6 0-12.1.6-16.5 1.5zm1136-1.5c-.1.1-8.7.4-19.2.8-10.4.4-20.6.8-22.5 1-1.9.2-7.1.7-11.5 1.1-81.3 6.8-169.2 33.7-243.5 74.3-22.4 12.3-50.3 30.1-70 44.5-10.5 7.8-32.1 24.8-34.8 27.5-.9.9-3.1 2.7-4.7 4-14.5 11.4-62.3 59.5-63.3 63.7-.2.8 1.4 4 3.6 7.2 17.4 25.9 41 70.9 57.3 109.6 4.5 10.5 8.3 19.6 8.6 20 .3.4 2.3-1.8 4.5-5 22.1-31.8 55.2-67.5 86.3-93.2 13.6-11.2 12.4-10.3 22.8-17.9 28-20.7 54.9-36.4 92.7-54 16.1-7.5 58.6-22.5 72.9-25.7.9-.2 6.1-1.5 11.6-2.9 5.5-1.3 11.7-2.7 13.9-3 2.1-.4 4.2-.8 4.6-1.1.4-.3 2.5-.7 4.6-1.1 8.7-1.3 10.1-1.5 14.9-2.4 2.8-.5 7.3-1.2 10-1.5 2.8-.3 6.4-.8 8-1 15.6-2.1 32.3-3.2 53.7-3.5 24-.4 38.8-5.7 53.5-19.4 24.3-22.5 29.5-59 12.4-87.4-11.1-18.6-30.6-31.5-50.9-33.7-6.2-.7-15.1-1.2-15.5-.9z"/></svg>